<svg id="visual" viewBox="0 0 1920 1080" width="1920" height="1080" xmlns="http://www.w3.org/2000/svg" xmlns:xlink="http://www.w3.org/1999/xlink" version="1.1"><rect x="0" y="0" width="1920" height="1080" fill="#EEECFF"></rect><defs><linearGradient id="grad1_0" x1="43.8%" y1="0%" x2="100%" y2="100%"><stop offset="14.444444444444446%" stop-color="#462b82" stop-opacity="1"></stop><stop offset="85.55555555555554%" stop-color="#462b82" stop-opacity="1"></stop></linearGradient></defs><defs><linearGradient id="grad1_1" x1="43.8%" y1="0%" x2="100%" y2="100%"><stop offset="14.444444444444446%" stop-color="#462b82" stop-opacity="1"></stop><stop offset="85.55555555555554%" stop-color="#7a69ad" stop-opacity="1"></stop></linearGradient></defs><defs><linearGradient id="grad1_2" x1="43.8%" y1="0%" x2="100%" y2="100%"><stop offset="14.444444444444446%" stop-color="#b1a9d7" stop-opacity="1"></stop><stop offset="85.55555555555554%" stop-color="#7a69ad" stop-opacity="1"></stop></linearGradient></defs><defs><linearGradient id="grad1_3" x1="43.8%" y1="0%" x2="100%" y2="100%"><stop offset="14.444444444444446%" stop-color="#b1a9d7" stop-opacity="1"></stop><stop offset="85.55555555555554%" stop-color="#eeecff" stop-opacity="1"></stop></linearGradient></defs><defs><linearGradient id="grad2_0" x1="0%" y1="0%" x2="56.3%" y2="100%"><stop offset="14.444444444444446%" stop-color="#462b82" stop-opacity="1"></stop><stop offset="85.55555555555554%" stop-color="#462b82" stop-opacity="1"></stop></linearGradient></defs><defs><linearGradient id="grad2_1" x1="0%" y1="0%" x2="56.3%" y2="100%"><stop offset="14.444444444444446%" stop-color="#7a69ad" stop-opacity="1"></stop><stop offset="85.55555555555554%" stop-color="#462b82" stop-opacity="1"></stop></linearGradient></defs><defs><linearGradient id="grad2_2" x1="0%" y1="0%" x2="56.3%" y2="100%"><stop offset="14.444444444444446%" stop-color="#7a69ad" stop-opacity="1"></stop><stop offset="85.55555555555554%" stop-color="#b1a9d7" stop-opacity="1"></stop></linearGradient></defs><defs><linearGradient id="grad2_3" x1="0%" y1="0%" x2="56.3%" y2="100%"><stop offset="14.444444444444446%" stop-color="#eeecff" stop-opacity="1"></stop><stop offset="85.55555555555554%" stop-color="#b1a9d7" stop-opacity="1"></stop></linearGradient></defs><g transform="translate(1920, 0)"><path d="M0 756C-131.9 736 -263.8 716.1 -378 654.7C-492.2 593.3 -588.6 490.5 -648.7 374.5C-708.7 258.5 -732.3 129.2 -756 0L0 0Z" fill="#cfcaeb"></path><path d="M0 567C-98.9 552 -197.9 537.1 -283.5 491C-369.1 445 -441.5 367.9 -486.5 280.9C-531.5 193.9 -549.3 96.9 -567 0L0 0Z" fill="#9588c2"></path><path d="M0 378C-66 368 -131.9 358 -189 327.4C-246.1 296.7 -294.3 245.3 -324.3 187.3C-354.3 129.2 -366.2 64.6 -378 0L0 0Z" fill="#604a98"></path><path d="M0 189C-33 184 -66 179 -94.5 163.7C-123 148.3 -147.2 122.6 -162.2 93.6C-177.2 64.6 -183.1 32.3 -189 0L0 0Z" fill="#462b82"></path></g><g transform="translate(0, 1080)"><path d="M0 -756C124.2 -723.6 248.3 -691.1 365 -632.2C481.7 -573.3 590.8 -487.8 654.7 -378C718.6 -268.2 737.3 -134.1 756 0L0 0Z" fill="#cfcaeb"></path><path d="M0 -567C93.1 -542.7 186.3 -518.4 273.7 -474.1C361.2 -429.9 443.1 -365.8 491 -283.5C539 -201.2 553 -100.6 567 0L0 0Z" fill="#9588c2"></path><path d="M0 -378C62.1 -361.8 124.2 -345.6 182.5 -316.1C240.8 -286.6 295.4 -243.9 327.4 -189C359.3 -134.1 368.7 -67.1 378 0L0 0Z" fill="#604a98"></path><path d="M0 -189C31 -180.9 62.1 -172.8 91.2 -158C120.4 -143.3 147.7 -121.9 163.7 -94.5C179.7 -67.1 184.3 -33.5 189 0L0 0Z" fill="#462b82"></path></g></svg>