<svg id="visual" viewBox="0 0 540 960" width="540" height="960" xmlns="http://www.w3.org/2000/svg" xmlns:xlink="http://www.w3.org/1999/xlink" version="1.1"><rect x="0" y="0" width="540" height="960" fill="#EEECFF"></rect><defs><linearGradient id="grad1_0" x1="0%" y1="0%" x2="100%" y2="100%"><stop offset="30%" stop-color="#462b82" stop-opacity="1"></stop><stop offset="70%" stop-color="#462b82" stop-opacity="1"></stop></linearGradient></defs><defs><linearGradient id="grad1_1" x1="0%" y1="0%" x2="100%" y2="100%"><stop offset="30%" stop-color="#462b82" stop-opacity="1"></stop><stop offset="70%" stop-color="#7a69ad" stop-opacity="1"></stop></linearGradient></defs><defs><linearGradient id="grad1_2" x1="0%" y1="0%" x2="100%" y2="100%"><stop offset="30%" stop-color="#b1a9d7" stop-opacity="1"></stop><stop offset="70%" stop-color="#7a69ad" stop-opacity="1"></stop></linearGradient></defs><defs><linearGradient id="grad1_3" x1="0%" y1="0%" x2="100%" y2="100%"><stop offset="30%" stop-color="#b1a9d7" stop-opacity="1"></stop><stop offset="70%" stop-color="#eeecff" stop-opacity="1"></stop></linearGradient></defs><defs><linearGradient id="grad2_0" x1="0%" y1="0%" x2="100%" y2="100%"><stop offset="30%" stop-color="#462b82" stop-opacity="1"></stop><stop offset="70%" stop-color="#462b82" stop-opacity="1"></stop></linearGradient></defs><defs><linearGradient id="grad2_1" x1="0%" y1="0%" x2="100%" y2="100%"><stop offset="30%" stop-color="#7a69ad" stop-opacity="1"></stop><stop offset="70%" stop-color="#462b82" stop-opacity="1"></stop></linearGradient></defs><defs><linearGradient id="grad2_2" x1="0%" y1="0%" x2="100%" y2="100%"><stop offset="30%" stop-color="#7a69ad" stop-opacity="1"></stop><stop offset="70%" stop-color="#b1a9d7" stop-opacity="1"></stop></linearGradient></defs><defs><linearGradient id="grad2_3" x1="0%" y1="0%" x2="100%" y2="100%"><stop offset="30%" stop-color="#eeecff" stop-opacity="1"></stop><stop offset="70%" stop-color="#b1a9d7" stop-opacity="1"></stop></linearGradient></defs><g transform="translate(540, 0)"><path d="M0 459C-58.6 436.3 -117.2 413.7 -156.9 378.8C-196.6 343.9 -217.5 296.8 -265.2 265.2C-312.8 233.5 -387.3 217.3 -424.1 175.7C-460.8 134 -459.9 67 -459 0L0 0Z" fill="#cfcaeb"></path><path d="M0 344.3C-43.9 327.3 -87.9 310.3 -117.7 284.1C-147.5 257.9 -163.1 222.6 -198.9 198.9C-234.6 175.1 -290.5 163 -318 131.7C-345.6 100.5 -344.9 50.3 -344.2 0L0 0Z" fill="#9588c2"></path><path d="M0 229.5C-29.3 218.2 -58.6 206.8 -78.5 189.4C-98.3 172 -108.7 148.4 -132.6 132.6C-156.4 116.8 -193.6 108.6 -212 87.8C-230.4 67 -230 33.5 -229.5 0L0 0Z" fill="#604a98"></path><path d="M0 114.8C-14.6 109.1 -29.3 103.4 -39.2 94.7C-49.2 86 -54.4 74.2 -66.3 66.3C-78.2 58.4 -96.8 54.3 -106 43.9C-115.2 33.5 -115 16.8 -114.7 0L0 0Z" fill="#462b82"></path></g><g transform="translate(0, 960)"><path d="M0 -459C52.6 -422 105.3 -385 145.8 -352C186.3 -319 214.7 -290.1 265.2 -265.2C315.6 -240.2 388.1 -219.2 424.1 -175.7C460 -132.1 459.5 -66.1 459 0L0 0Z" fill="#cfcaeb"></path><path d="M0 -344.2C39.5 -316.5 79 -288.7 109.4 -264C139.7 -239.3 161 -217.6 198.9 -198.9C236.7 -180.2 291.1 -164.4 318 -131.7C345 -99.1 344.6 -49.5 344.3 0L0 0Z" fill="#9588c2"></path><path d="M0 -229.5C26.3 -211 52.6 -192.5 72.9 -176C93.2 -159.5 107.4 -145.1 132.6 -132.6C157.8 -120.1 194 -109.6 212 -87.8C230 -66.1 229.8 -33 229.5 0L0 0Z" fill="#604a98"></path><path d="M0 -114.7C13.2 -105.5 26.3 -96.2 36.5 -88C46.6 -79.8 53.7 -72.5 66.3 -66.3C78.9 -60.1 97 -54.8 106 -43.9C115 -33 114.9 -16.5 114.8 0L0 0Z" fill="#462b82"></path></g></svg>