<svg id="visual" viewBox="0 0 540 960" width="540" height="960" xmlns="http://www.w3.org/2000/svg" xmlns:xlink="http://www.w3.org/1999/xlink" version="1.1"><rect x="0" y="0" width="540" height="960" fill="#EEECFF"></rect><defs><linearGradient id="grad1_0" x1="0%" y1="0%" x2="100%" y2="100%"><stop offset="30%" stop-color="#462b82" stop-opacity="1"></stop><stop offset="70%" stop-color="#462b82" stop-opacity="1"></stop></linearGradient></defs><defs><linearGradient id="grad1_1" x1="0%" y1="0%" x2="100%" y2="100%"><stop offset="30%" stop-color="#462b82" stop-opacity="1"></stop><stop offset="70%" stop-color="#7a69ad" stop-opacity="1"></stop></linearGradient></defs><defs><linearGradient id="grad1_2" x1="0%" y1="0%" x2="100%" y2="100%"><stop offset="30%" stop-color="#b1a9d7" stop-opacity="1"></stop><stop offset="70%" stop-color="#7a69ad" stop-opacity="1"></stop></linearGradient></defs><defs><linearGradient id="grad1_3" x1="0%" y1="0%" x2="100%" y2="100%"><stop offset="30%" stop-color="#b1a9d7" stop-opacity="1"></stop><stop offset="70%" stop-color="#eeecff" stop-opacity="1"></stop></linearGradient></defs><defs><linearGradient id="grad2_0" x1="0%" y1="0%" x2="100%" y2="100%"><stop offset="30%" stop-color="#462b82" stop-opacity="1"></stop><stop offset="70%" stop-color="#462b82" stop-opacity="1"></stop></linearGradient></defs><defs><linearGradient id="grad2_1" x1="0%" y1="0%" x2="100%" y2="100%"><stop offset="30%" stop-color="#7a69ad" stop-opacity="1"></stop><stop offset="70%" stop-color="#462b82" stop-opacity="1"></stop></linearGradient></defs><defs><linearGradient id="grad2_2" x1="0%" y1="0%" x2="100%" y2="100%"><stop offset="30%" stop-color="#7a69ad" stop-opacity="1"></stop><stop offset="70%" stop-color="#b1a9d7" stop-opacity="1"></stop></linearGradient></defs><defs><linearGradient id="grad2_3" x1="0%" y1="0%" x2="100%" y2="100%"><stop offset="30%" stop-color="#eeecff" stop-opacity="1"></stop><stop offset="70%" stop-color="#b1a9d7" stop-opacity="1"></stop></linearGradient></defs><g transform="translate(540, 0)"><path d="M0 270C-43.1 256.2 -86.2 242.5 -128 221.7C-169.8 200.9 -210.4 173.1 -233.8 135C-257.3 96.9 -263.6 48.4 -270 0L0 0Z" fill="#cfcaeb"></path><path d="M0 202.5C-32.3 192.2 -64.6 181.9 -96 166.3C-127.4 150.7 -157.8 129.8 -175.4 101.3C-193 72.7 -197.7 36.3 -202.5 0L0 0Z" fill="#9588c2"></path><path d="M0 135C-21.5 128.1 -43.1 121.2 -64 110.9C-84.9 100.5 -105.2 86.6 -116.9 67.5C-128.6 48.4 -131.8 24.2 -135 0L0 0Z" fill="#604a98"></path><path d="M0 67.5C-10.8 64.1 -21.5 60.6 -32 55.4C-42.5 50.2 -52.6 43.3 -58.5 33.8C-64.3 24.2 -65.9 12.1 -67.5 0L0 0Z" fill="#462b82"></path></g><g transform="translate(0, 960)"><path d="M0 -270C46.6 -262.2 93.1 -254.5 134.5 -233C175.9 -211.4 212.1 -176.1 233.8 -135C255.5 -93.9 262.8 -46.9 270 0L0 0Z" fill="#cfcaeb"></path><path d="M0 -202.5C34.9 -196.7 69.8 -190.9 100.9 -174.7C131.9 -158.6 159.1 -132.1 175.4 -101.3C191.7 -70.4 197.1 -35.2 202.5 0L0 0Z" fill="#9588c2"></path><path d="M0 -135C23.3 -131.1 46.6 -127.2 67.2 -116.5C87.9 -105.7 106.1 -88.1 116.9 -67.5C127.8 -46.9 131.4 -23.5 135 0L0 0Z" fill="#604a98"></path><path d="M0 -67.5C11.6 -65.6 23.3 -63.6 33.6 -58.2C44 -52.9 53 -44 58.5 -33.8C63.9 -23.5 65.7 -11.7 67.5 0L0 0Z" fill="#462b82"></path></g></svg>