<svg id="visual" viewBox="0 0 960 540" width="960" height="540" xmlns="http://www.w3.org/2000/svg" xmlns:xlink="http://www.w3.org/1999/xlink" version="1.1"><rect x="0" y="0" width="960" height="540" fill="#ffffff"></rect><defs><linearGradient id="grad1_0" x1="43.8%" y1="0%" x2="100%" y2="100%"><stop offset="14.444444444444446%" stop-color="#462b82" stop-opacity="1"></stop><stop offset="85.55555555555554%" stop-color="#462b82" stop-opacity="1"></stop></linearGradient></defs><defs><linearGradient id="grad1_1" x1="43.8%" y1="0%" x2="100%" y2="100%"><stop offset="14.444444444444446%" stop-color="#462b82" stop-opacity="1"></stop><stop offset="85.55555555555554%" stop-color="#856dab" stop-opacity="1"></stop></linearGradient></defs><defs><linearGradient id="grad1_2" x1="43.8%" y1="0%" x2="100%" y2="100%"><stop offset="14.444444444444446%" stop-color="#c2b3d5" stop-opacity="1"></stop><stop offset="85.55555555555554%" stop-color="#856dab" stop-opacity="1"></stop></linearGradient></defs><defs><linearGradient id="grad1_3" x1="43.8%" y1="0%" x2="100%" y2="100%"><stop offset="14.444444444444446%" stop-color="#c2b3d5" stop-opacity="1"></stop><stop offset="85.55555555555554%" stop-color="#ffffff" stop-opacity="1"></stop></linearGradient></defs><defs><linearGradient id="grad2_0" x1="0%" y1="0%" x2="56.3%" y2="100%"><stop offset="14.444444444444446%" stop-color="#462b82" stop-opacity="1"></stop><stop offset="85.55555555555554%" stop-color="#462b82" stop-opacity="1"></stop></linearGradient></defs><defs><linearGradient id="grad2_1" x1="0%" y1="0%" x2="56.3%" y2="100%"><stop offset="14.444444444444446%" stop-color="#856dab" stop-opacity="1"></stop><stop offset="85.55555555555554%" stop-color="#462b82" stop-opacity="1"></stop></linearGradient></defs><defs><linearGradient id="grad2_2" x1="0%" y1="0%" x2="56.3%" y2="100%"><stop offset="14.444444444444446%" stop-color="#856dab" stop-opacity="1"></stop><stop offset="85.55555555555554%" stop-color="#c2b3d5" stop-opacity="1"></stop></linearGradient></defs><defs><linearGradient id="grad2_3" x1="0%" y1="0%" x2="56.3%" y2="100%"><stop offset="14.444444444444446%" stop-color="#ffffff" stop-opacity="1"></stop><stop offset="85.55555555555554%" stop-color="#c2b3d5" stop-opacity="1"></stop></linearGradient></defs><g transform="translate(960, 0)"><path d="M0 378C-69.6 370.1 -139.2 362.2 -189 327.4C-238.8 292.5 -268.8 230.6 -297 171.5C-325.2 112.4 -351.6 56.2 -378 0L0 0Z" fill="#e0d9ea"></path><path d="M0 283.5C-52.2 277.6 -104.4 271.7 -141.7 245.5C-179.1 219.4 -201.6 172.9 -222.8 128.6C-243.9 84.3 -263.7 42.2 -283.5 0L0 0Z" fill="#a38fc0"></path><path d="M0 189C-34.8 185.1 -69.6 181.1 -94.5 163.7C-119.4 146.2 -134.4 115.3 -148.5 85.8C-162.6 56.2 -175.8 28.1 -189 0L0 0Z" fill="#664b96"></path><path d="M0 94.5C-17.4 92.5 -34.8 90.6 -47.2 81.8C-59.7 73.1 -67.2 57.6 -74.3 42.9C-81.3 28.1 -87.9 14.1 -94.5 0L0 0Z" fill="#462b82"></path></g><g transform="translate(0, 540)"><path d="M0 -378C69.8 -370.3 139.6 -362.5 189 -327.4C238.4 -292.2 267.2 -229.6 295.3 -170.5C323.4 -111.4 350.7 -55.7 378 0L0 0Z" fill="#e0d9ea"></path><path d="M0 -283.5C52.4 -277.7 104.7 -271.9 141.7 -245.5C178.8 -219.2 200.4 -172.2 221.5 -127.9C242.6 -83.5 263 -41.8 283.5 0L0 0Z" fill="#a38fc0"></path><path d="M0 -189C34.9 -185.1 69.8 -181.3 94.5 -163.7C119.2 -146.1 133.6 -114.8 147.7 -85.3C161.7 -55.7 175.4 -27.8 189 0L0 0Z" fill="#664b96"></path><path d="M0 -94.5C17.5 -92.6 34.9 -90.6 47.2 -81.8C59.6 -73.1 66.8 -57.4 73.8 -42.6C80.9 -27.8 87.7 -13.9 94.5 0L0 0Z" fill="#462b82"></path></g></svg>